<svg xmlns="http://www.w3.org/2000/svg" viewBox="0 0 96 96" role="img" aria-label="Mi">
  <defs>
    <linearGradient id="mdBg" x1="0%" y1="0%" x2="100%" y2="100%">
      <stop offset="0%" stop-color="#020617"/>
      <stop offset="48%" stop-color="#1e1b4b"/>
      <stop offset="100%" stop-color="#581c87"/>
    </linearGradient>
    <radialGradient id="mdGlow" cx="22%" cy="12%" r="58%">
      <stop offset="0%" stop-color="#22d3ee" stop-opacity="0.45"/>
      <stop offset="45%" stop-color="#c084fc" stop-opacity="0.14"/>
      <stop offset="100%" stop-color="#000000" stop-opacity="0"/>
    </radialGradient>
    <linearGradient id="mdBorder" x1="0%" y1="0%" x2="100%" y2="100%">
      <stop offset="0%" stop-color="#67e8f9"/>
      <stop offset="45%" stop-color="#e879f9"/>
      <stop offset="100%" stop-color="#a5b4fc"/>
    </linearGradient>
    <linearGradient id="mdLetter" x1="0%" y1="0%" x2="0%" y2="100%">
      <stop offset="0%" stop-color="#fefce8"/>
      <stop offset="40%" stop-color="#ffffff"/>
      <stop offset="100%" stop-color="#bae6fd"/>
    </linearGradient>
    <filter id="mdDrop" x="-12%" y="-12%" width="124%" height="124%">
      <feDropShadow dx="0" dy="2" stdDeviation="2" flood-color="#020617" flood-opacity="0.55"/>
    </filter>
  </defs>

  <rect width="96" height="96" rx="22" fill="#020617"/>
  <rect width="96" height="96" rx="22" fill="url(#mdBg)"/>
  <rect width="96" height="96" rx="22" fill="url(#mdGlow)"/>

  <path d="M18 18c14-5 46-5 60 0 3 1 4 4 1 6l-.8 1.2c-18-6-42-6-54.8 0-2.2-1.8-1.8-4.8 1.4-6z" fill="#ffffff" opacity="0.11"/>

  <rect x="3" y="3" width="90" height="90" rx="19" fill="none" stroke="url(#mdBorder)" stroke-width="2" opacity="0.9"/>

  <g filter="url(#mdDrop)">
    <text
      x="48"
      y="62"
      text-anchor="middle"
      dominant-baseline="middle"
      font-family="system-ui, -apple-system, BlinkMacSystemFont, 'Segoe UI', Roboto, sans-serif"
      font-weight="800"
      font-size="44"
      letter-spacing="-0.04em"
      fill="url(#mdLetter)">Mi</text>
  </g>
</svg>
